<svg width="118" height="80" viewBox="0 0 118 80" fill="none" xmlns="http://www.w3.org/2000/svg">
<path d="M117.26 73.0638C114.929 79.066 107.652 81.4725 101.854 79.0943C96.0549 76.716 93.5535 69.6663 96.2823 64.1171C98.0731 60.4931 100.631 58.8793 102.252 56.3312C104.185 53.3018 105.691 50.8386 105.691 45.8273C105.691 40.816 105.009 36.4843 101.74 35.0686C97.7605 33.3416 94.2073 37.9282 88.8634 43.619C85.3102 47.3845 79.2557 54.1795 78.0334 59.3889C76.8111 64.5984 77.3228 65.6459 77.3512 67.2881C77.3512 68.9302 77.0669 70.912 76.4131 72.5258C73.7696 78.9244 66.2369 81.3876 59.756 78.6979C53.2751 76.0366 50.2336 68.9302 52.9339 62.5316C54.7816 58.1715 57.9652 57.0673 60.5519 52.3392C62.3995 48.97 63.9629 44.0153 63.9629 38.9757C63.9629 33.9362 63.5934 27.9056 58.7043 26.3768C53.8151 24.8479 46.5099 32.8603 40.9101 39.2022C33.1216 48.064 33.2353 49.6778 32.3257 54.0945C31.5582 57.8317 32.411 64.2303 31.4161 68.194C29.1989 77.0275 20.9841 80.7081 12.3996 79.4907C3.64469 78.2449 -1.47184 69.0434 0.375799 60.5214C1.85391 53.6981 7.59579 48.8851 14.2757 48.1772C15.9528 48.0074 20.8419 47.4411 23.9687 46.3369C28.6588 44.6948 34.7134 41.4955 38.7498 36.7391C42.7862 31.9826 48.4143 25.4708 49.864 22.2432C52.3086 16.9205 50.7168 13.523 52.3939 8.68158C54.81 1.77338 63.3091 -1.85059 70.1312 0.952324C76.9532 3.75524 79.9379 12.1357 77.1238 18.874C76.0436 21.4504 74.0823 23.1492 71.2113 26.3485C68.9089 28.9249 66.5496 31.5296 66.5496 38.9757C66.5496 46.4219 65.7253 51.15 70.7281 52.5657C75.1909 53.8397 80.4211 48.9983 86.1346 41.9485C92.5587 33.9928 92.9566 32.1808 93.6957 28.7833C94.4347 25.3858 94.1789 22.3564 94.321 21.5354C95.5149 15.0235 101.797 10.352 108.306 11.9092C114.588 13.4097 118.568 18.5626 117.374 25.0744C116.976 27.1978 116.066 29.0948 114.73 30.6519C113.394 32.2091 112.087 33.0868 110.751 35.55C109.33 38.183 108.448 41.9485 108.448 45.8556C108.448 49.7627 110.41 55.0288 111.348 56.6143C113.195 59.672 115.1 60.578 116.663 63.4659C118.795 67.4862 117.914 71.0253 117.175 73.0071L117.26 73.0638Z" fill="#B9FF00"/>
</svg>
