<svg width="565" height="80" viewBox="0 0 565 80" fill="none" xmlns="http://www.w3.org/2000/svg">
<path d="M117.26 73.0638C114.929 79.066 107.652 81.4725 101.854 79.0943C96.0549 76.716 93.5535 69.6663 96.2823 64.1171C98.0731 60.4931 100.631 58.8793 102.252 56.3312C104.185 53.3018 105.691 50.8386 105.691 45.8273C105.691 40.816 105.009 36.4843 101.74 35.0686C97.7605 33.3416 94.2073 37.9282 88.8634 43.619C85.3102 47.3845 79.2557 54.1795 78.0334 59.3889C76.8111 64.5984 77.3228 65.6459 77.3512 67.2881C77.3512 68.9302 77.0669 70.912 76.4131 72.5258C73.7696 78.9244 66.2369 81.3876 59.756 78.6979C53.2751 76.0366 50.2336 68.9302 52.9339 62.5316C54.7816 58.1715 57.9652 57.0673 60.5519 52.3392C62.3995 48.97 63.9629 44.0153 63.9629 38.9757C63.9629 33.9362 63.5934 27.9056 58.7043 26.3768C53.8151 24.8479 46.5099 32.8603 40.9101 39.2022C33.1216 48.064 33.2353 49.6778 32.3257 54.0945C31.5582 57.8317 32.411 64.2303 31.4161 68.194C29.1989 77.0275 20.9841 80.7081 12.3996 79.4907C3.64469 78.2449 -1.47184 69.0434 0.375799 60.5214C1.85391 53.6981 7.59579 48.8851 14.2757 48.1772C15.9528 48.0074 20.8419 47.4411 23.9687 46.3369C28.6588 44.6948 34.7134 41.4955 38.7498 36.7391C42.7862 31.9826 48.4143 25.4708 49.864 22.2432C52.3086 16.9205 50.7168 13.523 52.3939 8.68158C54.81 1.77338 63.3091 -1.85059 70.1312 0.952324C76.9532 3.75524 79.9379 12.1357 77.1238 18.874C76.0436 21.4504 74.0823 23.1492 71.2113 26.3485C68.9089 28.9249 66.5496 31.5296 66.5496 38.9757C66.5496 46.4219 65.7253 51.15 70.7281 52.5657C75.1909 53.8397 80.4211 48.9983 86.1346 41.9485C92.5587 33.9928 92.9566 32.1808 93.6957 28.7833C94.4347 25.3858 94.1789 22.3564 94.321 21.5354C95.5149 15.0235 101.797 10.352 108.306 11.9092C114.588 13.4097 118.568 18.5626 117.374 25.0744C116.976 27.1978 116.066 29.0948 114.73 30.6519C113.394 32.2091 112.087 33.0868 110.751 35.55C109.33 38.183 108.448 41.9485 108.448 45.8556C108.448 49.7627 110.41 55.0288 111.348 56.6143C113.195 59.672 115.1 60.578 116.663 63.4659C118.795 67.4862 117.914 71.0253 117.175 73.0071L117.26 73.0638Z" fill="#B9FF00"/>
<path d="M157.082 63.3574V29.8226C157.082 29.4954 157.409 29.1683 157.736 29.1683H166.079C166.406 29.1683 166.733 29.4954 166.733 29.8226V36.5296C166.733 37.1839 165.915 37.4293 165.506 36.8568L165.097 36.2024C164.934 36.0388 164.934 35.7116 165.097 35.548C166.324 33.3397 167.96 31.6221 170.087 30.477C172.295 29.2501 174.831 28.5957 177.693 28.5957C180.556 28.5957 183.664 29.4136 186.036 31.0495C188.163 32.5217 189.635 34.5666 190.453 37.3475C190.616 37.8382 190.126 38.329 189.635 38.1654L187.917 37.6747C187.508 37.5929 187.345 37.1021 187.508 36.7749C188.653 34.403 190.453 32.4399 192.743 31.0495C195.278 29.4136 198.223 28.6775 201.576 28.6775C204.93 28.6775 206.811 29.2501 208.938 30.3134C211.064 31.3767 212.782 33.0943 214.009 35.3845C215.236 37.6747 215.89 40.5374 215.89 44.0545V63.3574C215.89 63.6846 215.563 64.0118 215.236 64.0118H206.402C206.075 64.0118 205.748 63.6846 205.748 63.3574V45.6085C205.748 42.8276 205.175 40.701 204.03 39.3923C202.885 38.0836 201.249 37.3475 199.123 37.3475C196.996 37.3475 196.342 37.6747 195.197 38.329C194.052 38.9833 193.152 39.9649 192.498 41.3553C191.843 42.664 191.516 44.3816 191.516 46.5082V63.3574C191.516 63.6846 191.189 64.0118 190.862 64.0118H182.028C181.701 64.0118 181.374 63.6846 181.374 63.3574V45.6085C181.374 42.8276 180.801 40.701 179.656 39.3923C178.511 38.0836 176.875 37.3475 174.749 37.3475C172.622 37.3475 171.968 37.6747 170.823 38.329C169.678 38.9833 168.778 39.9649 168.124 41.3553C167.469 42.664 167.142 44.3816 167.142 46.5082V63.3574C167.142 63.6846 166.815 64.0118 166.488 64.0118H157.654C157.327 64.0118 157 63.6846 157 63.3574H157.082Z" fill="#B9FF00"/>
<path d="M239.284 64.5845C235.276 64.5845 231.841 63.8484 228.814 62.2943C225.788 60.7403 223.498 58.6137 221.862 55.9146C220.226 53.2154 219.408 50.1073 219.408 46.672C219.408 43.2368 220.226 40.0468 221.862 37.3477C223.498 34.6486 225.706 32.522 228.487 30.9679C231.268 29.4139 234.458 28.6777 237.975 28.6777C241.492 28.6777 244.436 29.4139 247.217 30.8861C249.916 32.3584 252.125 34.4032 253.761 37.1023C255.396 39.8015 256.133 42.9914 256.133 46.7538C256.133 50.5163 256.133 47.5718 256.133 48.0625C256.133 48.3079 256.133 48.6351 256.133 48.8804C256.133 49.1258 255.805 49.4529 255.478 49.4529H228.405C228.078 49.4529 227.751 49.1258 227.751 48.7986V44.2183C227.751 43.8911 228.078 43.5639 228.405 43.5639H247.708C248.444 43.5639 248.608 44.5454 247.953 44.7908H247.708C247.299 45.118 246.808 44.7908 246.808 44.3819C246.727 42.9914 246.318 41.6827 245.745 40.6194C245.009 39.3107 244.027 38.2474 242.719 37.5113C241.41 36.7752 239.938 36.3662 238.22 36.3662C236.503 36.3662 234.949 36.7752 233.64 37.5113C232.331 38.2474 231.268 39.3107 230.532 40.7012C229.796 42.0917 229.469 43.6457 229.469 45.5269V47.081C229.469 48.9622 229.878 50.6798 230.695 52.0703C231.513 53.5426 232.74 54.6059 234.294 55.342C235.848 56.0781 237.648 56.4871 239.693 56.4871C241.737 56.4871 243.21 56.2417 244.6 55.6692C245.827 55.1784 246.972 54.5241 247.953 53.5426C248.199 53.2972 248.608 53.2972 248.853 53.5426L253.352 58.4501C253.597 58.6955 253.597 59.1045 253.352 59.3498C251.798 60.9857 249.916 62.2126 247.708 63.1123C245.254 64.0938 242.473 64.5845 239.365 64.5845H239.284Z" fill="#B9FF00"/>
<path d="M259.648 63.3574V29.8226C259.648 29.4954 259.975 29.1683 260.303 29.1683H268.645C268.972 29.1683 269.3 29.4954 269.3 29.8226V36.1206C269.3 36.7749 268.4 37.0203 268.073 36.366C267.991 36.2024 267.991 35.957 268.073 35.7935C269.136 33.5033 270.772 31.7039 272.898 30.477C275.025 29.2501 277.561 28.6775 280.587 28.5957C280.914 28.5957 281.241 28.9229 281.241 29.2501V37.1839C281.241 37.5929 280.914 37.8383 280.505 37.8383C280.096 37.8383 280.178 37.8383 280.014 37.8383C279.687 37.8383 279.278 37.8383 278.951 37.8383C276.17 37.8383 273.962 38.6562 272.244 40.2102C270.526 41.7643 269.709 44.218 269.709 47.5715V63.3574C269.709 63.6846 269.381 64.0118 269.054 64.0118H260.221C259.894 64.0118 259.566 63.6846 259.566 63.3574H259.648Z" fill="#B9FF00"/>
<path d="M300.543 64.5845C296.78 64.5845 293.427 63.8484 290.482 62.2943C287.538 60.7403 285.248 58.6137 283.612 55.9146C281.976 53.2154 281.158 50.1073 281.158 46.672C281.158 43.2368 281.976 40.0468 283.612 37.3477C285.248 34.6486 287.538 32.522 290.482 30.9679C293.427 29.4139 296.78 28.6777 300.543 28.6777C304.305 28.6777 307.413 29.4139 310.112 30.9679C312.648 32.3584 314.529 34.4032 315.838 36.9387C317.146 39.4743 315.838 37.5931 315.592 37.7567L308.886 41.3555C308.558 41.5191 308.231 41.3556 308.068 41.1102C307.25 39.7197 306.186 38.7382 304.96 38.002C303.569 37.2659 302.097 36.857 300.543 36.857C298.989 36.857 297.271 37.2659 295.881 38.002C294.49 38.7382 293.427 39.8832 292.609 41.2737C291.791 42.6642 291.382 44.4637 291.382 46.4267C291.382 48.3897 291.791 50.1891 292.609 51.5796C293.427 52.97 294.49 54.1151 295.881 54.8513C297.271 55.5874 298.825 55.9963 300.543 55.9963C302.26 55.9963 303.651 55.5874 304.96 54.8513C306.186 54.1969 307.168 53.1336 308.068 51.7432C308.231 51.416 308.64 51.3342 308.967 51.4978L315.674 55.1784C316.001 55.342 316.083 55.751 315.92 55.9963C314.611 58.5319 312.73 60.4949 310.194 61.9672C307.495 63.5213 304.305 64.2574 300.625 64.2574L300.543 64.5845Z" fill="#B9FF00"/>
<path d="M318.457 63.3577V16.6543C318.457 16.3272 318.784 16 319.111 16H327.945C328.272 16 328.599 16.3272 328.599 16.6543V36.9388C328.599 37.5932 327.781 37.8385 327.454 37.3478L326.636 36.2845C326.473 36.0391 326.473 35.7937 326.636 35.5483C327.863 33.4217 329.581 31.7041 331.789 30.559C334.079 29.3321 336.778 28.6778 339.723 28.6778C342.667 28.6778 344.958 29.2504 347.166 30.3137C349.374 31.377 351.092 33.0946 352.319 35.3848C353.546 37.675 354.2 40.5377 354.2 44.0548V63.3577C354.2 63.6849 353.873 64.0121 353.546 64.0121H344.712C344.385 64.0121 344.058 63.6849 344.058 63.3577V45.6088C344.058 42.8279 343.403 40.7013 342.177 39.3926C340.95 38.0839 339.232 37.3478 336.942 37.3478C334.652 37.3478 333.916 37.675 332.607 38.3293C331.298 38.9836 330.317 40.0469 329.662 41.4374C328.926 42.8279 328.599 44.6273 328.599 46.7539V63.3577C328.599 63.6849 328.272 64.0121 327.945 64.0121H319.111C318.784 64.0121 318.457 63.6849 318.457 63.3577Z" fill="#B9FF00"/>
<path d="M370.64 64.5848C367.94 64.5848 365.569 64.0941 363.687 63.1944C361.724 62.2946 360.252 60.9859 359.189 59.4319C358.126 57.796 357.635 56.0784 357.635 54.0336C357.635 51.9888 358.126 50.1893 359.189 48.6353C360.17 47.0812 361.806 45.8543 364.015 44.9546C366.223 44.0549 369.086 43.646 372.603 43.646H381.191C381.518 43.646 381.845 43.9731 381.845 44.3003V48.8807C381.845 49.2079 381.518 49.535 381.191 49.535H373.666C371.294 49.535 369.658 49.944 368.758 50.6801C367.859 51.4162 367.45 52.3978 367.45 53.6246C367.45 54.8515 367.94 55.9148 369.004 56.7327C369.985 57.4689 371.376 57.8779 373.175 57.8779C374.975 57.8779 376.365 57.4689 377.674 56.651C378.573 56.0784 379.31 55.3423 379.882 54.4426C380.209 53.9518 380.864 54.0336 381.027 54.6062L382.009 57.5507C382.009 57.7143 382.009 57.8778 382.009 57.9596C381.273 60.0862 379.964 61.7221 378.083 62.8672C376.12 64.0123 373.666 64.5848 370.558 64.5848H370.64ZM381.273 63.3579V57.3053C381.273 57.2235 381.273 57.1417 381.273 57.0599L380.7 55.833C380.7 55.833 380.7 55.6694 380.7 55.5876V43.5642C380.7 41.4376 380.046 39.72 378.737 38.4931C377.428 37.2662 375.384 36.6936 372.684 36.6936C369.985 36.6936 369.004 37.0208 367.204 37.5933C365.65 38.0841 364.342 38.7384 363.197 39.5564C362.052 40.3743 362.46 39.6382 362.297 39.311L359.271 33.4219C359.107 33.0948 359.271 32.7676 359.516 32.604C361.315 31.4589 363.442 30.4774 365.896 29.8231C368.595 29.0869 371.294 28.7598 374.075 28.7598C379.391 28.7598 383.481 29.9867 386.425 32.5222C389.37 35.0578 390.842 38.902 390.842 44.2185V63.4397C390.842 63.7669 390.515 64.0941 390.188 64.0941H382.009C381.681 64.0941 381.354 63.7669 381.354 63.4397L381.273 63.3579Z" fill="#B9FF00"/>
<path d="M396.65 63.3574V29.8226C396.65 29.4954 396.977 29.1683 397.304 29.1683H405.647C405.974 29.1683 406.301 29.4954 406.301 29.8226V36.5296C406.301 37.1839 405.483 37.4293 405.074 36.8568L404.665 36.2024C404.502 36.0388 404.502 35.7116 404.665 35.548C405.892 33.4214 407.61 31.7039 409.818 30.477C412.109 29.2501 414.808 28.5957 417.752 28.5957C420.697 28.5957 422.987 29.1682 425.195 30.2315C427.404 31.2948 429.121 33.0125 430.348 35.3027C431.575 37.5929 432.229 40.4556 432.229 43.9727V63.2757C432.229 63.6028 431.902 63.93 431.575 63.93H422.741C422.414 63.93 422.087 63.6028 422.087 63.2757V45.5267C422.087 42.7458 421.433 40.6192 420.206 39.3105C418.979 38.0018 417.261 37.2657 414.971 37.2657C412.681 37.2657 411.945 37.5929 410.636 38.2472C409.328 38.9016 408.346 39.9649 407.692 41.3553C406.956 42.7458 406.628 44.5452 406.628 46.6718V63.2757C406.628 63.6028 406.301 63.93 405.974 63.93H397.141C396.814 63.93 396.486 63.6028 396.486 63.2757L396.65 63.3574Z" fill="#B9FF00"/>
<path d="M453.33 64.5849C450.058 64.5849 447.114 63.8488 444.497 62.3765C441.879 60.9042 439.753 58.7776 438.28 56.1603C436.726 53.4611 435.99 50.353 435.99 46.6724C435.99 42.9917 436.726 39.8018 438.28 37.1844C439.834 34.4853 441.879 32.4405 444.497 30.9682C447.114 29.496 450.058 28.7598 453.33 28.7598C456.602 28.7598 458.81 29.4142 461.018 30.7229C463.227 32.0315 464.944 33.9946 466.171 36.6119C467.398 39.2293 467.971 42.5828 467.971 46.6724C467.971 50.762 467.398 54.1155 466.253 56.7328C465.108 59.3502 463.39 61.395 461.264 62.6219C459.055 63.9305 456.438 64.5849 453.412 64.5849H453.33ZM455.048 56.2421C456.683 56.2421 458.156 55.8331 459.546 55.097C460.855 54.3608 461.918 53.2158 462.736 51.7435C463.554 50.2712 463.963 48.5536 463.963 46.5905C463.963 44.6275 463.554 42.8281 462.736 41.4376C461.918 40.0472 460.855 38.9021 459.546 38.166C458.238 37.4298 456.683 37.0209 455.048 37.0209C453.412 37.0209 451.858 37.4298 450.549 38.166C449.24 38.9021 448.177 40.0472 447.359 41.4376C446.541 42.8281 446.132 44.6275 446.132 46.5905C446.132 48.5536 446.541 50.2712 447.359 51.7435C448.177 53.2158 449.24 54.279 450.549 55.097C451.858 55.8331 453.412 56.2421 455.048 56.2421ZM464.863 64.0123C464.535 64.0123 464.208 63.6851 464.208 63.358V56.8964L464.372 46.5905L463.718 36.3665V16.7364C463.718 16.4092 464.045 16.082 464.372 16.082H473.205C473.533 16.082 473.86 16.4092 473.86 16.7364V63.4398C473.86 63.767 473.533 64.0941 473.205 64.0941H464.863V64.0123Z" fill="#B9FF00"/>
<path d="M511.81 64.5845C508.048 64.5845 504.695 63.8484 501.75 62.2943C498.806 60.7403 496.515 58.6137 494.88 55.9146C493.244 53.2154 492.426 50.1073 492.426 46.672C492.426 43.2368 493.244 40.0468 494.88 37.3477C496.515 34.6486 498.806 32.522 501.75 30.9679C504.695 29.4139 508.048 28.6777 511.81 28.6777C515.573 28.6777 518.681 29.4139 521.38 30.9679C523.916 32.3584 525.797 34.4032 527.105 36.9387C527.269 37.2659 527.105 37.5931 526.86 37.7567L520.153 41.3555C519.826 41.5191 519.499 41.3556 519.335 41.1102C518.517 39.7197 517.454 38.7382 516.227 38.002C514.837 37.2659 513.364 36.857 511.81 36.857C510.256 36.857 508.539 37.2659 507.148 38.002C505.758 38.7382 504.695 39.8832 503.877 41.2737C503.059 42.6642 502.65 44.4637 502.65 46.4267C502.65 48.3897 503.059 50.1891 503.877 51.5796C504.695 52.97 505.758 54.1151 507.148 54.8513C508.539 55.5874 510.093 55.9963 511.81 55.9963C513.528 55.9963 514.918 55.5874 516.227 54.8513C517.454 54.1969 518.435 53.1336 519.335 51.7432C520.235 50.3527 519.908 51.3342 520.235 51.4978L526.942 55.1784C527.269 55.342 527.351 55.751 527.187 55.9963C525.879 58.5319 523.997 60.4949 521.462 61.9672C518.763 63.5213 515.573 64.2574 511.892 64.2574L511.81 64.5845Z" fill="#B9FF00"/>
<path d="M546.247 64.503C542.73 64.503 539.54 63.7669 536.759 62.2128C533.978 60.6587 531.852 58.6139 530.216 55.9148C528.58 53.2156 527.844 50.1893 527.844 46.754C527.844 43.3188 528.662 40.2106 530.216 37.5933C531.852 34.9759 533.978 32.8494 536.759 31.3771C539.54 29.9048 542.648 29.0869 546.247 29.0869C549.846 29.0869 553.036 29.823 555.816 31.3771C558.597 32.8494 560.806 34.9759 562.36 37.5933C563.914 40.2106 564.732 43.3188 564.732 46.754C564.732 50.1893 563.914 53.2156 562.36 55.9148C560.806 58.6139 558.597 60.6587 555.816 62.2128C553.036 63.7669 549.846 64.503 546.247 64.503ZM546.247 57.5506C548.21 57.5506 550.009 57.1417 551.563 56.242C553.117 55.3423 554.344 54.1153 555.244 52.4795C556.144 50.8436 556.553 48.8806 556.553 46.754C556.553 44.6274 556.144 42.5826 555.244 40.9468C554.344 39.311 553.117 38.084 551.563 37.1843C550.009 36.2846 548.292 35.8757 546.329 35.8757C544.366 35.8757 542.566 36.2846 541.094 37.1843C539.54 38.084 538.313 39.311 537.413 40.9468C536.514 42.5826 536.023 44.4638 536.023 46.754C536.023 49.0442 536.514 50.8436 537.413 52.4795C538.313 54.1153 539.54 55.3423 541.094 56.242C542.648 57.1417 544.366 57.5506 546.329 57.5506H546.247Z" fill="#B9FF00"/>
</svg>
